# xmcd
#
# Track frame offsets: 
#        150
#        24447
#        38175
#        58110
#        88273
#        90039
#        108506
#        109860
#        134439
#        136655
#        155294
#        169670
#        185302
#        200159
#        209739
#        228943
#        256234
#        283839
#        295916
#        315922
#
# Disc length: 4528 seconds
#
# Revision: 1
# Processed by: cddbd v1.5.2PL0 Copyright (c) Steve Scherf et al.
# Submitted via: ExactAudioCopy v0.99pb5
#
DISCID=1911ae14
DTITLE=Led Zeppelin - Maxell is Pleased to Present: The Complete BBC S
DTITLE=essions
DYEAR=2006
DGENRE=Blues
TTITLE0=01. You Shook Me (03-03-69 Peel's Top Gear)
TTITLE1=02. Communication Breakdown (03-03-69 Peel's Top Gear)
TTITLE2=03. I Can't Quit You Baby (03-03-69 Peel's Top Gear)
TTITLE3=04. Dazed and Confused (03-03-69 Peel's Top Gear)
TTITLE4=05. Alexis Korner Intro (03-19-69 Korner's Rhythm and Blues)
TTITLE5=06. What is and What Should Never Be (03-19-69 Korner's Rhythm
TTITLE5=and Blues)
TTITLE6=07. More Chat (03-19-69 Korner's Rhythm and Blues)
TTITLE7=08. I Can't Quit You Baby (03-19-69 Korner's Rhythm and Blues)
TTITLE8=09. More Chat (03-19-69 Korner's Rhythm and Blues)
TTITLE9=10. You Shook Me (03-19-69 Korner's Rhythm and Blues)
TTITLE10=11. Sunshine Woman (03-19-69 Korner's Rhythm and Blues)
TTITLE11=12. The Girl I Love (06-16-69 Grant's Tasty Pop Sundae)
TTITLE12=13. Communication Breakdown (06-16-69 Grant's Tasty Pop Sunda
TTITLE12=e)
TTITLE13=14. Somethin' Else (06-16-69 Grant's Tasty Pop Sundae)
TTITLE14=15. What is and What Should Never Be (06-16-69 Grant's Tasty 
TTITLE14=Pop Sundae)
TTITLE15=16. Group Interview with Chris Grant (06-16-69 Grant's Tasty 
TTITLE15=Pop Sundae)
TTITLE16=17. Whole Lotta Love (06-24-69 Peel's Top Gear)
TTITLE17=18. Communication Breakdown (06-24-69 Peel's Top Gear)
TTITLE18=19. What is and What Should Never Be (06-24-69 Peel's Top Gea
TTITLE18=r)
TTITLE19=20. Traveling Riverside Blues (06-24-69 Peel's Top Gear)
EXTD=
EXTT0=
EXTT1=
EXTT2=
EXTT3=
EXTT4=
EXTT5=
EXTT6=
EXTT7=
EXTT8=
EXTT9=
EXTT10=
EXTT11=
EXTT12=
EXTT13=
EXTT14=
EXTT15=
EXTT16=
EXTT17=
EXTT18=
EXTT19=
PLAYORDER=
